<svg width="133" height="133" viewBox="0 0 133 133" fill="none" xmlns="http://www.w3.org/2000/svg">
<g id="graph">
<g id="Chart">
<path id="Ellipse 8" d="M66.5001 -8.23045e-05C103.227 -7.71969e-05 133 29.773 133 66.5C133 103.227 103.227 133 66.5 133C29.7731 133 4.14057e-06 103.227 9.24822e-06 66.5C1.43559e-05 29.773 29.7731 -8.74122e-05 66.5001 -8.23045e-05ZM66.5 113.05C92.2089 113.05 113.05 92.2088 113.05 66.5C113.05 40.7911 92.2089 19.9499 66.5001 19.9499C40.7912 19.9499 19.95 40.7911 19.95 66.5C19.95 92.2088 40.7912 113.05 66.5 113.05Z" fill="#E6EDF9"/>
<path id="Ellipse 6" d="M66.5001 -8.23045e-05C80.0123 -8.04254e-05 93.2039 4.11615 104.318 11.8005C115.433 19.4848 123.943 30.3727 128.715 43.0141C133.487 55.6556 134.295 69.4509 131.031 82.563C127.767 95.6751 120.586 107.482 110.445 116.411C100.303 125.34 87.6824 130.968 74.2625 132.545C60.8427 134.123 47.2608 131.574 35.3253 125.24C23.3898 118.906 13.6672 109.086 7.45212 97.0875C1.237 85.0895 -1.1757 71.4828 0.535293 58.0794L20.3247 60.6056C19.127 69.988 20.8159 79.5126 25.1665 87.9112C29.5171 96.3099 36.3229 103.184 44.6777 107.618C53.0325 112.052 62.5399 113.836 71.9338 112.732C81.3277 111.628 90.1624 107.688 97.2614 101.438C104.36 95.1873 109.387 86.9226 111.672 77.7441C113.956 68.5656 113.391 58.9089 110.05 50.0599C106.71 41.2108 100.753 33.5894 92.9729 28.2103C85.1927 22.8313 75.9586 19.9499 66.5001 19.9499L66.5001 -8.23045e-05Z" fill="#6AD2FF"/>
<path id="Ellipse 7" d="M66.5001 -8.23045e-05C76.7449 -8.08797e-05 86.8513 2.36697 96.0306 6.9164C105.21 11.4658 113.214 18.0746 119.418 26.2271C125.623 34.3796 129.86 43.8554 131.798 53.9151C133.737 63.9748 133.326 74.3465 130.595 84.2209C127.865 94.0954 122.891 103.205 116.06 110.841C109.229 118.476 100.726 124.429 91.215 128.237C81.7039 132.044 71.4417 133.603 61.2291 132.791C51.0165 131.979 41.1295 128.818 32.3397 123.555L42.5878 106.439C48.7407 110.123 55.6615 112.335 62.8104 112.904C69.9592 113.472 77.1427 112.381 83.8005 109.716C90.4582 107.05 96.4101 102.883 101.192 97.5384C105.974 92.1938 109.456 85.8167 111.367 78.9047C113.278 71.9926 113.566 64.7324 112.209 57.6906C110.852 50.6487 107.886 44.0157 103.543 38.309C99.1998 32.6022 93.597 27.9761 87.1714 24.7915C80.7459 21.6069 73.6715 19.9499 66.5001 19.9499L66.5001 -8.23045e-05Z" fill="#6624D9"/>
</g>
</g>
</svg>
